<?xml version="1.0" encoding="utf-8"?>
<!-- Generator: Adobe Illustrator 15.1.0, SVG Export Plug-In . SVG Version: 6.00 Build 0)  -->
<!DOCTYPE svg PUBLIC "-//W3C//DTD SVG 1.1//EN" "http://www.w3.org/Graphics/SVG/1.1/DTD/svg11.dtd">
<svg version="1.1" id="Warstwa_1" xmlns="http://www.w3.org/2000/svg" xmlns:xlink="http://www.w3.org/1999/xlink" x="0px" y="0px"
	 width="9px" height="9px" viewBox="0 0 9 9" enable-background="new 0 0 9 9" xml:space="preserve">
<title>Shape</title>
<desc>Created with Sketch.</desc>
<g id="Welcome">
	<g id="Main-Page" transform="translate(-1559.000000, -89.000000)">
		<g id="INTRO" transform="translate(-1.000000, 60.000000)">
			<g id="zoom" transform="translate(1548.000000, 29.000000)">
				<path id="Shape" fill="#FFFFFF" d="M12,0.456V5.02c0,0.252,0.205,0.455,0.457,0.455s0.457-0.203,0.457-0.455V1.558l6.521,6.521
					c0.004,0.004,0.007,0.008,0.011,0.012c0.182,0.175,0.471,0.17,0.645-0.012c0.176-0.183,0.17-0.472-0.011-0.646l-6.52-6.521h3.46
					c0.252,0,0.455-0.205,0.455-0.457S17.271,0,17.02,0h-4.562C12.205,0,12,0.204,12,0.456z"/>
			</g>
		</g>
	</g>
</g>
</svg>
