<?xml version="1.0" encoding="utf-8"?>
<!-- Generator: Adobe Illustrator 15.1.0, SVG Export Plug-In . SVG Version: 6.00 Build 0)  -->
<!DOCTYPE svg PUBLIC "-//W3C//DTD SVG 1.1//EN" "http://www.w3.org/Graphics/SVG/1.1/DTD/svg11.dtd">
<svg version="1.1" id="Warstwa_1" xmlns="http://www.w3.org/2000/svg" xmlns:xlink="http://www.w3.org/1999/xlink" x="0px" y="0px"
	 width="9px" height="9px" viewBox="0 0 9 9" enable-background="new 0 0 9 9" xml:space="preserve">
<title>Shape</title>
<desc>Created with Sketch.</desc>
<g id="Welcome">
	<g id="Main-Page" transform="translate(-1559.000000, -89.000000)">
		<g id="INTRO" transform="translate(-1.000000, 60.000000)">
			<g id="zoom" transform="translate(1548.000000, 29.000000)">
				<path id="Shape" fill="#FFFFFF" d="M21,8.544V3.98c0-0.252-0.205-0.455-0.457-0.455s-0.457,0.203-0.457,0.455v3.461
					l-6.521-6.521c-0.004-0.004-0.007-0.008-0.011-0.012c-0.182-0.175-0.471-0.17-0.645,0.012c-0.176,0.183-0.17,0.472,0.011,0.646
					l6.52,6.521h-3.46c-0.252,0-0.455,0.205-0.455,0.457S15.729,9,15.98,9h4.562C20.795,9,21,8.796,21,8.544z"/>
			</g>
		</g>
	</g>
</g>
</svg>
