<?xml version="1.0" encoding="utf-8"?>
<!-- Generator: Adobe Illustrator 15.1.0, SVG Export Plug-In . SVG Version: 6.00 Build 0)  -->
<!DOCTYPE svg PUBLIC "-//W3C//DTD SVG 1.1//EN" "http://www.w3.org/Graphics/SVG/1.1/DTD/svg11.dtd">
<svg version="1.1" id="Warstwa_1" xmlns="http://www.w3.org/2000/svg" xmlns:xlink="http://www.w3.org/1999/xlink" x="0px" y="0px"
	 width="9px" height="9px" viewBox="0 0 9 9" enable-background="new 0 0 9 9" xml:space="preserve">
<title>Shape</title>
<desc>Created with Sketch.</desc>
<g id="Welcome">
	<g id="Main-Page" transform="translate(-1559.000000, -89.000000)">
		<g id="INTRO" transform="translate(-1.000000, 60.000000)">
			<g id="zoom" transform="translate(1548.000000, 29.000000)">
				<path id="Shape" fill="#FFFFFF" d="M12.457,9h4.562c0.252,0,0.455-0.204,0.455-0.456s-0.203-0.457-0.455-0.457h-3.46l6.52-6.521
					c0.181-0.174,0.187-0.463,0.011-0.646c-0.174-0.182-0.463-0.187-0.645-0.012c-0.004,0.004-0.007,0.008-0.011,0.012l-6.521,6.521
					V3.98c0-0.252-0.205-0.455-0.457-0.455S12,3.729,12,3.98v4.563C12,8.796,12.205,9,12.457,9z"/>
			</g>
		</g>
	</g>
</g>
</svg>
