<?xml version="1.0" encoding="utf-8"?>
<!-- Generator: Adobe Illustrator 15.1.0, SVG Export Plug-In . SVG Version: 6.00 Build 0)  -->
<!DOCTYPE svg PUBLIC "-//W3C//DTD SVG 1.1//EN" "http://www.w3.org/Graphics/SVG/1.1/DTD/svg11.dtd">
<svg version="1.1" id="Warstwa_1" xmlns="http://www.w3.org/2000/svg" xmlns:xlink="http://www.w3.org/1999/xlink" x="0px" y="0px"
	 width="104.021px" height="25.856px" viewBox="0 0 104.021 25.856" enable-background="new 0 0 104.021 25.856"
	 xml:space="preserve">
<g>
	<path fill="#FFFFFF" d="M50.495,7.86l-2.431,2.88c-1.085-1.322-2.691-2.148-4.154-2.148c-2.62,0-4.603,2.077-4.603,4.792
		c0,2.762,1.983,4.863,4.603,4.863c1.393,0,2.998-0.756,4.154-1.936l2.455,2.596c-1.77,1.818-4.39,3.021-6.821,3.021
		c-4.98,0-8.687-3.659-8.687-8.498c0-4.768,3.8-8.356,8.828-8.356C46.293,5.075,48.843,6.161,50.495,7.86z"/>
	<path fill="#FFFFFF" d="M65.528,13.714v8.025h-4.083v-6.893c0-1.487-0.85-2.407-2.243-2.407c-1.604,0-2.596,1.274-2.596,3.021
		v6.279h-4.083V4.226h4.083v6.893c0.897-1.511,2.384-2.266,4.272-2.29C63.687,8.829,65.528,10.74,65.528,13.714z"/>
	<path fill="#FFFFFF" d="M79.666,13.431v8.309h-3.99v-1.463c-0.826,1.085-2.172,1.652-3.895,1.652c-2.715,0-4.367-1.652-4.367-3.989
		c0-2.407,1.723-3.824,4.887-3.848h3.352v-0.188c0-1.251-0.826-2.006-2.479-2.006c-1.062,0-2.455,0.377-3.801,1.062l-1.156-2.691
		c1.982-0.92,3.777-1.439,5.902-1.439C77.611,8.829,79.643,10.551,79.666,13.431z M75.652,17.42v-1.133H73.08
		c-1.227,0-1.842,0.425-1.842,1.369c0,0.921,0.662,1.511,1.795,1.511C74.309,19.167,75.393,18.459,75.652,17.42z"/>
	<path fill="#FFFFFF" d="M90.781,21.055c-0.92,0.543-2.172,0.874-3.398,0.874c-2.455,0-4.227-1.393-4.227-4.036v-5.618h-1.77V9.607
		h1.77V6.066h4.061v3.517h3.328v2.691h-3.328v4.98c0,0.992,0.426,1.417,1.18,1.393c0.426,0,0.969-0.165,1.582-0.425L90.781,21.055z"
		/>
	<path fill="#FFFFFF" d="M104.094,13.431v8.309h-3.99v-1.463c-0.826,1.085-2.172,1.652-3.895,1.652
		c-2.715,0-4.367-1.652-4.367-3.989c0-2.407,1.725-3.824,4.887-3.848h3.352v-0.188c0-1.251-0.826-2.006-2.479-2.006
		c-1.062,0-2.455,0.377-3.801,1.062l-1.156-2.691c1.982-0.92,3.777-1.439,5.902-1.439C102.039,8.829,104.07,10.551,104.094,13.431z
		 M100.08,17.42v-1.133h-2.572c-1.229,0-1.842,0.425-1.842,1.369c0,0.921,0.66,1.511,1.795,1.511
		C98.734,19.167,99.82,18.459,100.08,17.42z"/>
</g>
<path fill="#3D64CC" d="M23.454,11.919c-0.378,0-0.684,0.306-0.684,0.684v12.185h-7.339v-7.649c0-0.377-0.306-0.684-0.684-0.684
	H9.39c-0.378,0-0.684,0.306-0.684,0.684v4.099c0,0.378,0.306,0.685,0.684,0.685c0.377,0,0.684-0.307,0.684-0.685v-3.415h3.989v6.965
	H1.368V10.136l10.701-8.576l6.669,5.394c0.294,0.237,0.725,0.189,0.961-0.105c0.236-0.295,0.189-0.726-0.106-0.961L12.496,0.15
	c-0.25-0.2-0.605-0.2-0.855,0L0.256,9.274C0.094,9.404,0,9.6,0,9.808v15.663c0,0.377,0.306,0.684,0.684,0.684h22.77
	c0.377,0,0.684-0.306,0.684-0.684V12.603C24.137,12.225,23.831,11.919,23.454,11.919z"/>
</svg>
