<?xml version="1.0" encoding="utf-8"?>
<!-- Generator: Adobe Illustrator 15.1.0, SVG Export Plug-In . SVG Version: 6.00 Build 0)  -->
<!DOCTYPE svg PUBLIC "-//W3C//DTD SVG 1.1//EN" "http://www.w3.org/Graphics/SVG/1.1/DTD/svg11.dtd">
<svg version="1.1" id="Warstwa_1" xmlns="http://www.w3.org/2000/svg" xmlns:xlink="http://www.w3.org/1999/xlink" x="0px" y="0px"
	 width="36.503px" height="57.926px" viewBox="8.486 5.137 36.503 57.926" enable-background="new 8.486 5.137 36.503 57.926"
	 xml:space="preserve">
<g>
	<path fill="#3E4049" d="M16.666,55.729l-1.285,1.521c-0.573-0.699-1.422-1.135-2.195-1.135c-1.384,0-2.432,1.098-2.432,2.532
		c0,1.458,1.048,2.569,2.432,2.569c0.736,0,1.586-0.398,2.195-1.023l1.298,1.373c-0.936,0.961-2.319,1.596-3.604,1.596
		c-2.632,0-4.59-1.934-4.59-4.491c0-2.519,2.008-4.415,4.664-4.415C14.446,54.258,15.793,54.831,16.666,55.729z"/>
	<path fill="#3E4049" d="M24.61,58.823v4.24h-2.157v-3.643c0-0.786-0.449-1.271-1.187-1.271c-0.848,0-1.371,0.673-1.371,1.596v3.318
		h-2.157V53.81h2.157v3.643c0.475-0.799,1.26-1.198,2.258-1.21C23.637,56.242,24.61,57.251,24.61,58.823z"/>
	<path fill="#3E4049" d="M32.081,58.673v4.393h-2.109V62.29c-0.436,0.574-1.146,0.875-2.057,0.875c-1.435,0-2.308-0.875-2.308-2.109
		c0-1.27,0.909-2.02,2.58-2.031h1.773v-0.101c0-0.661-0.436-1.06-1.311-1.06c-0.561,0-1.297,0.2-2.008,0.562l-0.61-1.422
		c1.048-0.486,1.996-0.76,3.119-0.76C30.995,56.242,32.067,57.151,32.081,58.673z M29.96,60.78v-0.6H28.6
		c-0.646,0-0.973,0.227-0.973,0.725c0,0.486,0.35,0.799,0.947,0.799C29.251,61.704,29.823,61.329,29.96,60.78z"/>
	<path fill="#3E4049" d="M37.954,62.702c-0.486,0.287-1.148,0.461-1.795,0.461c-1.297,0-2.234-0.736-2.234-2.133v-2.967h-0.936
		v-1.41h0.936v-1.871h2.146v1.858h1.758v1.422h-1.758v2.632c0,0.523,0.225,0.748,0.623,0.734c0.227,0,0.514-0.086,0.836-0.225
		L37.954,62.702z"/>
	<path fill="#3E4049" d="M44.989,58.673v4.393H42.88V62.29c-0.436,0.574-1.146,0.875-2.059,0.875c-1.436,0-2.309-0.875-2.309-2.109
		c0-1.27,0.912-2.02,2.584-2.031h1.771v-0.101c0-0.661-0.438-1.06-1.311-1.06c-0.562,0-1.297,0.2-2.01,0.562l-0.609-1.422
		c1.047-0.486,1.994-0.76,3.117-0.76C43.903,56.242,44.975,57.151,44.989,58.673z M42.868,60.78v-0.6h-1.359
		c-0.648,0-0.975,0.227-0.975,0.725c0,0.486,0.35,0.799,0.949,0.799C42.155,61.704,42.729,61.329,42.868,60.78z"/>
</g>
<path fill="#3D64CC" d="M43.766,22.742c-0.564,0-1.021,0.458-1.021,1.022V41.99H31.766V30.55c0-0.563-0.459-1.022-1.021-1.022
	h-8.012c-0.565,0-1.024,0.458-1.024,1.022v6.13c0,0.567,0.459,1.025,1.024,1.025c0.562,0,1.021-0.458,1.021-1.025v-5.106h5.967
	V41.99H10.733V20.074L26.738,7.248l9.976,8.067c0.439,0.354,1.082,0.282,1.438-0.158c0.354-0.44,0.281-1.085-0.16-1.438
	L27.378,5.137c-0.375-0.298-0.905-0.298-1.279,0L9.069,18.785c-0.241,0.194-0.384,0.488-0.384,0.8v23.426
	c0,0.563,0.459,1.023,1.024,1.023h34.055c0.564,0,1.025-0.458,1.025-1.023V23.765C44.788,23.2,44.331,22.742,43.766,22.742z"/>
</svg>
