<?xml version="1.0" encoding="utf-8"?>
<!-- Generator: Adobe Illustrator 15.1.0, SVG Export Plug-In . SVG Version: 6.00 Build 0)  -->
<!DOCTYPE svg PUBLIC "-//W3C//DTD SVG 1.1//EN" "http://www.w3.org/Graphics/SVG/1.1/DTD/svg11.dtd">
<svg version="1.1" id="Warstwa_1" xmlns="http://www.w3.org/2000/svg" xmlns:xlink="http://www.w3.org/1999/xlink" x="0px" y="0px"
	 width="36.503px" height="57.926px" viewBox="0 0 36.503 57.926" enable-background="new 0 0 36.503 57.926" xml:space="preserve">
<g>
	<g>
		<path fill="#FFFFFF" d="M8.181,50.652l-1.285,1.521c-0.573-0.699-1.422-1.135-2.195-1.135c-1.384,0-2.432,1.098-2.432,2.531
			c0,1.459,1.048,2.569,2.432,2.569c0.736,0,1.586-0.397,2.195-1.022l1.298,1.373c-0.936,0.961-2.319,1.596-3.604,1.596
			C1.958,58.086,0,56.152,0,53.595c0-2.519,2.009-4.415,4.664-4.415C5.96,49.182,7.308,49.755,8.181,50.652z"/>
		<path fill="#FFFFFF" d="M16.125,53.747v4.239h-2.157v-3.643c0-0.786-0.449-1.271-1.187-1.271c-0.849,0-1.371,0.674-1.371,1.597
			v3.317H9.252v-9.252h2.157v3.643c0.476-0.799,1.26-1.198,2.258-1.21C15.152,51.166,16.125,52.175,16.125,53.747z"/>
		<path fill="#FFFFFF" d="M23.596,53.597v4.394h-2.109v-0.776c-0.436,0.574-1.146,0.875-2.057,0.875
			c-1.436,0-2.309-0.875-2.309-2.108c0-1.271,0.909-2.021,2.58-2.031h1.773v-0.102c0-0.66-0.437-1.06-1.312-1.06
			c-0.562,0-1.297,0.2-2.008,0.562l-0.61-1.422c1.049-0.486,1.996-0.76,3.119-0.76C22.51,51.166,23.582,52.074,23.596,53.597z
			 M21.475,55.704v-0.601h-1.36c-0.646,0-0.974,0.228-0.974,0.726c0,0.485,0.351,0.799,0.947,0.799
			C20.766,56.628,21.338,56.253,21.475,55.704z"/>
		<path fill="#FFFFFF" d="M29.469,57.626c-0.486,0.287-1.148,0.461-1.795,0.461c-1.298,0-2.234-0.736-2.234-2.133v-2.968h-0.937
			v-1.41h0.937v-1.87h2.146v1.858h1.759v1.422h-1.759v2.631c0,0.523,0.226,0.748,0.623,0.734c0.228,0,0.515-0.086,0.836-0.225
			L29.469,57.626z"/>
		<path fill="#FFFFFF" d="M36.503,53.597v4.394h-2.108v-0.776c-0.437,0.574-1.146,0.875-2.06,0.875
			c-1.437,0-2.309-0.875-2.309-2.108c0-1.271,0.911-2.021,2.584-2.031h1.771v-0.102c0-0.66-0.438-1.06-1.311-1.06
			c-0.562,0-1.297,0.2-2.01,0.562l-0.609-1.422c1.047-0.486,1.994-0.76,3.117-0.76C35.417,51.166,36.49,52.074,36.503,53.597z
			 M34.383,55.704v-0.601h-1.359c-0.648,0-0.975,0.228-0.975,0.726c0,0.485,0.35,0.799,0.948,0.799
			C33.669,56.628,34.244,56.253,34.383,55.704z"/>
	</g>
	<path fill="#3D64CC" d="M35.281,17.666c-0.563,0-1.021,0.458-1.021,1.022v18.227H23.281V25.473c0-0.563-0.459-1.022-1.021-1.022
		h-8.013c-0.565,0-1.024,0.459-1.024,1.022v6.13c0,0.567,0.459,1.025,1.024,1.025c0.562,0,1.021-0.458,1.021-1.025v-5.106h5.968
		v10.417H2.248V14.998L18.252,2.171l9.977,8.067c0.438,0.354,1.082,0.282,1.438-0.158c0.354-0.44,0.281-1.085-0.16-1.438
		L18.893,0.061c-0.375-0.298-0.905-0.298-1.279,0L0.583,13.708c-0.24,0.194-0.384,0.488-0.384,0.8v23.426
		c0,0.563,0.459,1.023,1.024,1.023h34.055c0.563,0,1.024-0.458,1.024-1.023V18.688C36.303,18.124,35.846,17.666,35.281,17.666z"/>
</g>
</svg>
