<?xml version="1.0" encoding="utf-8"?>
<!-- Generator: Adobe Illustrator 23.0.3, SVG Export Plug-In . SVG Version: 6.00 Build 0)  -->
<svg version="1.1" id="레이어_1" xmlns="http://www.w3.org/2000/svg" xmlns:xlink="http://www.w3.org/1999/xlink" x="0px"
	 y="0px" viewBox="0 0 109.46 131.05" style="enable-background:new 0 0 109.46 131.05;" xml:space="preserve">
<style type="text/css">
	.st0{fill:#FFFFFF;}
</style>
<g>
	<g>
		<g>
			<polygon class="st0" points="27.47,54.13 24.74,69.63 18.44,54.13 13.75,54.13 9.95,75.64 14.98,75.64 17.3,62.47 22.64,75.64 
				28.71,75.64 32.5,54.13 			"/>
		</g>
		<g>
			<polygon class="st0" points="54.34,54.13 53.46,59.13 50.55,75.64 55.57,75.64 58.48,59.13 62.39,59.13 59.47,75.64 64.5,75.64 
				67.41,59.13 71.31,59.13 68.4,75.64 73.43,75.64 76.34,59.13 77.22,54.13 			"/>
		</g>
		<path class="st0" d="M81.1,54.1l-3.76,21.55h13.45l5.15,0l3.8-21.55H81.1z M91.66,70.65h-6.06l0,0h-2.24l0.94-5.31h0l1.09-6.21
			h3.15h5.15l-0.93,5.27L91.66,70.65z"/>
		<g>
			<polygon class="st0" points="33.39,70.61 32.51,75.64 46.68,75.64 47.57,70.61 38.42,70.61 			"/>
			<polygon class="st0" points="39.07,67.28 48.15,67.28 49.03,62.28 39.89,62.28 34.86,62.28 33.98,67.28 39.01,67.28 			"/>
			<polygon class="st0" points="40.51,59.13 49.59,59.13 50.47,54.13 36.37,54.13 36.37,54.13 36.3,54.13 35.42,59.13 40.44,59.13 
							"/>
		</g>
	</g>
	<polygon class="st0" points="5.41,100.38 0,131.05 86.35,131.05 91.75,100.38 36.03,100.38 	"/>
	<polygon class="st0" points="48.77,30.45 104.09,30.45 109.46,0 23.53,0 23.53,0 23.11,0 17.74,30.45 48.36,30.45 	"/>
</g>
</svg>
