<?xml version="1.0" encoding="utf-8"?>
<!-- Generator: Adobe Illustrator 23.0.3, SVG Export Plug-In . SVG Version: 6.00 Build 0)  -->
<svg version="1.1" id="레이어_1" xmlns="http://www.w3.org/2000/svg" xmlns:xlink="http://www.w3.org/1999/xlink" x="0px"
	 y="0px" viewBox="0 0 900 900" style="enable-background:new 0 0 900 900;" xml:space="preserve">
<style type="text/css">
	.st0{fill:#425CC7;}
	.st1{opacity:0.9;}
	.st2{fill:#C0C1C1;}
	.st3{opacity:0.5;}
	.st4{fill:none;stroke:#ACACAD;stroke-width:2;stroke-miterlimit:10;}
	.st5{fill:#595757;}
	.st6{font-family:'SDGothicNeoa-eMd-KSCpc-EUC-H';}
	.st7{font-size:21.7043px;}
	.st8{fill:none;stroke:#969797;stroke-width:2;stroke-linecap:round;stroke-linejoin:round;stroke-miterlimit:10;}
	.st9{opacity:0.12;}
	.st10{fill:#1F59C5;}
	.st11{fill:#FFFFFF;}
	.st12{font-family:'SDGothicNeoa-cLt-KSCpc-EUC-H';}
	.st13{font-size:17.6348px;}
	.st14{fill:none;stroke:#1F59C5;stroke-miterlimit:10;}
</style>
<g>
	<g>
		<g>
			<g>
				<polygon class="st0" points="377.47,231.38 375.36,243.3 417.09,243.3 419.19,231.38 				"/>
				<polygon class="st0" points="412.65,266.76 414.76,254.85 373.03,254.85 370.93,266.76 				"/>
				<polygon class="st0" points="408.38,291.37 410.48,279.46 368.76,279.46 366.66,291.37 				"/>
			</g>
			<g class="st1">
				<path class="st2" d="M497.04,276.48c4.29,6.29,11.63,8.46,18.66,5.52c5.17-2.16,10.35-4.32,15.5-6.55
					c3.23-1.4,4.88-4.34,4.55-7.83c-0.32-3.28-2.67-6.03-5.87-6.8c-1.75-0.42-3.45-0.16-5.1,0.55c-4.49,1.93-8.98,3.82-13.48,5.73
					c-0.44,0.19-0.88,0.36-1.39,0.57c-1-1.54-1.92-3.07-2.94-4.54c-2.86-4.14-5.73-8.27-8.64-12.38c-2.37-3.35-5.44-5.46-9.7-5.89
					c-3.21-0.33-6.37-1.16-9.54-1.84c-3.26-0.69-6.37,0.1-9.44,0.93c-5.32,1.42-10.62,2.94-15.88,4.58
					c-5.45,1.71-9.59,5.14-12.33,10.18c-2.85,5.22-5.67,10.46-8.47,15.71c-2.18,4.08-0.91,8.65,2.91,10.65
					c3.97,2.08,8.5,0.69,10.68-3.33c2.64-4.84,5.3-9.67,7.82-14.58c1.15-2.23,2.73-3.68,5.2-4.2c0.83-0.17,1.64-0.49,2.69-0.82
					c-0.79,3.13-1.52,6.07-2.26,9c-1.45,5.82-2.97,11.61-4.32,17.45c-0.98,4.28-0.18,8.13,2.73,11.67
					c5.89,7.13,11.52,14.46,17.32,21.67c4.24,5.27,7.33,11.12,9.38,17.55c2.75,8.61,5.51,17.22,8.33,25.8
					c1.4,4.27,4.96,6.8,9.16,6.68c4.02-0.11,7.78-3.04,8.74-7.07c0.34-1.41,0.5-3.09,0.07-4.43c-3.49-10.96-6.93-21.94-10.79-32.77
					c-2.86-8.02-8.04-14.74-13.45-21.24c-1.39-1.67-2.76-3.37-4.06-5.12c-0.28-0.38-0.43-1.09-0.27-1.52
					c3.37-9.47,6.78-18.93,10.19-28.39c0.06-0.18,0.19-0.33,0.35-0.6C494.67,272.83,495.82,274.68,497.04,276.48z M448.81,311.26
					c-0.3,1.17-0.79,1.49-1.98,1.44c-9.48-0.33-18.96-0.62-28.44-0.86c-4.96-0.13-8.81,2.82-9.79,7.35
					c-1.23,5.7,2.89,11.07,8.71,11.26c10.16,0.32,20.32,0.63,30.48,0.86c7.38,0.17,12.89-3.14,16.73-9.36
					c0.36-0.59,0.62-1.07,0.05-1.79c-4.36-5.44-8.66-10.91-12.99-16.37c-0.08-0.11-0.22-0.17-0.47-0.36
					C450.31,306.09,449.48,308.65,448.81,311.26z M489.47,206.32c-9.38,0.06-16.93,7.8-16.86,17.28
					c0.07,9.36,7.78,16.95,17.13,16.86c9.52-0.09,17.07-7.7,17-17.13C506.67,213.78,499.03,206.26,489.47,206.32z"/>
				<path class="st2" d="M493.39,270.86c1.28,1.97,2.43,3.82,3.65,5.62c4.29,6.29,11.63,8.46,18.66,5.52
					c5.17-2.16,10.35-4.32,15.5-6.55c3.23-1.4,4.88-4.34,4.55-7.83c-0.32-3.28-2.67-6.03-5.87-6.8c-1.75-0.42-3.45-0.16-5.1,0.55
					c-4.49,1.93-8.98,3.82-13.48,5.73c-0.44,0.19-0.88,0.36-1.39,0.57c-1-1.54-1.92-3.07-2.94-4.54c-2.86-4.14-5.73-8.27-8.64-12.38
					c-2.37-3.35-5.44-5.46-9.7-5.89c-3.21-0.33-6.37-1.16-9.54-1.84c-3.26-0.69-6.37,0.1-9.44,0.93
					c-5.32,1.42-10.62,2.94-15.88,4.58c-5.45,1.71-9.59,5.14-12.33,10.18c-2.85,5.22-5.67,10.46-8.47,15.71
					c-2.18,4.08-0.91,8.65,2.91,10.65c3.97,2.08,8.5,0.69,10.68-3.33c2.64-4.84,5.3-9.67,7.82-14.58c1.15-2.23,2.73-3.68,5.2-4.2
					c0.83-0.17,1.64-0.49,2.69-0.82c-0.79,3.13-1.52,6.07-2.26,9c-1.45,5.82-2.97,11.61-4.32,17.45c-0.98,4.28-0.18,8.13,2.73,11.67
					c5.89,7.13,11.52,14.46,17.32,21.67c4.24,5.27,7.33,11.12,9.38,17.55c2.75,8.61,5.51,17.22,8.33,25.8
					c1.4,4.27,4.96,6.8,9.16,6.68c4.02-0.11,7.78-3.04,8.74-7.07c0.34-1.41,0.5-3.09,0.07-4.43c-3.49-10.96-6.93-21.94-10.79-32.77
					c-2.86-8.02-8.04-14.74-13.45-21.24c-1.39-1.67-2.76-3.37-4.06-5.12c-0.28-0.38-0.43-1.09-0.27-1.52
					c3.37-9.47,6.78-18.93,10.19-28.39C493.1,271.29,493.23,271.13,493.39,270.86z"/>
				<path class="st2" d="M451.1,303.43c-0.79,2.65-1.62,5.22-2.28,7.83c-0.3,1.17-0.79,1.49-1.98,1.44
					c-9.48-0.33-18.96-0.62-28.44-0.86c-4.96-0.13-8.81,2.82-9.79,7.35c-1.23,5.7,2.89,11.07,8.71,11.26
					c10.16,0.32,20.32,0.63,30.48,0.86c7.38,0.17,12.89-3.14,16.73-9.36c0.36-0.59,0.62-1.07,0.05-1.79
					c-4.36-5.44-8.66-10.91-12.99-16.37C451.48,303.68,451.34,303.62,451.1,303.43z"/>
				<path class="st2" d="M506.74,223.34c-0.08-9.55-7.71-17.08-17.27-17.02c-9.38,0.06-16.93,7.8-16.86,17.28
					c0.07,9.36,7.78,16.95,17.13,16.86C499.26,240.38,506.82,232.76,506.74,223.34z"/>
			</g>
		</g>
		<g>
			<g class="st3">
				<path class="st4" d="M440.27,106.07l9.06,10.04c-92.2,0-166.94,74.74-166.94,166.94"/>
			</g>
			<g class="st3">
				<path class="st4" d="M462.18,463l-9.06-10.04c92.2,0,166.94-74.74,166.94-166.94"/>
			</g>
		</g>
	</g>
	<text transform="matrix(1 0 0 1 410.3232 790.9551)" class="st5 st6 st7">CLIENTS</text>
	<polyline class="st8" points="460.1,736.51 451.22,745.39 442.35,736.51 	"/>
	<g>
		<g class="st9">
			<path class="st10" d="M831.58,525.63c-17.84-18.95-40.95-29.06-64.42-30.3l-398.23-0.13H155.66l-15.43,0
				c-24.84,0-49.68,9.91-68.72,29.76C33.2,564.91,32.92,629.98,70.87,670.3c20.34,21.61,47.54,31.72,74.3,30.3h612.02
				c26.48,1.43,53.43-8.43,73.75-29.63C869.25,631.02,869.53,565.95,831.58,525.63z"/>
		</g>
		<g>
			<g>
				<circle class="st5" cx="145.34" cy="597.52" r="89.37"/>
				<g>
					<text transform="matrix(1 0 0 1 122.355 594.9766)" class="st11 st6 st7">Print</text>
					<text transform="matrix(1 0 0 1 129.1157 625.7812)" class="st11 st12 st13">인쇄</text>
				</g>
			</g>
			<g>
				<circle class="st5" cx="348.6" cy="597.52" r="89.37"/>
				<text transform="matrix(1 0 0 1 316.2427 594.9766)" class="st11 st6 st7">Design</text>
				<g>
					<text transform="matrix(1 0 0 1 324.2676 625.7812)" class="st11 st12 st13">디자인</text>
				</g>
			</g>
			<g>
				<circle class="st5" cx="755.13" cy="597.52" r="89.37"/>
				<g>
					<text transform="matrix(1 0 0 1 713.7959 572.5908)"><tspan x="0" y="0" class="st11 st6 st7">Business</tspan><tspan x="-20.02" y="31.71" class="st11 st6 st7">Convenience</tspan></text>
					<text transform="matrix(1 0 0 1 703.9912 635.1035)" class="st11 st12 st13">비즈니스 편의</text>
				</g>
			</g>
			<g>
				<circle class="st5" cx="551.87" cy="597.52" r="89.37"/>
				<g>
					<text transform="matrix(1 0 0 1 508.709 594.9766)" class="st11 st6 st7">Contents</text>
					<text transform="matrix(1 0 0 1 527.5312 625.7812)" class="st11 st12 st13">컨텐츠</text>
				</g>
			</g>
		</g>
		<g>
			<path class="st14" d="M831.58,525.63c-17.84-18.95-40.95-29.06-64.42-30.3l-398.23-0.13H155.66l-15.43,0
				c-24.84,0-49.68,9.91-68.72,29.76C33.2,564.91,32.92,629.98,70.87,670.3c20.34,21.61,47.54,31.72,74.3,30.3h612.02
				c26.48,1.43,53.43-8.43,73.75-29.63C869.25,631.02,869.53,565.95,831.58,525.63z"/>
		</g>
	</g>
</g>
</svg>
